# xmcd
#
# Track frame offsets:
#	150
#	17177
#	35730
#	54742
#	74187
#	91032
#	108915
#	127252
#	146492
#	164982
#	184555
#	203107
#	220947
#	237722
#	256632
#	274682
#	294230
#
# Disc length: 4184 seconds
#
# Revision: 1
# Processed by: cddbd v1.4PL0 Copyright (c) Steve Scherf et al.
# Submitted via: audiograbber 1.80
#
DISCID=0d105611
DTITLE=Various Artist - The Complete Blue Note Recordings of Albert Ammons and Meade L
DTITLE=ux Lewis [CDII)
DYEAR=1900
DGENRE=
TTITLE0=Meade Lux Lewis - Untitled Lewis Original
TTITLE1=Meade Lux Lewis - Melancholy
TTITLE2=Meade Lux Lewis - Solitude
TTITLE3=Meade Lux Lewis - Honky Tonk Train Blues
TTITLE4=Meade Lux Lewis - Bass on Top
TTITLE5=Meade Lux Lewis - Six Wheel Chaser
TTITLE6=Meade Lux Lewis - Tell Your Story
TTITLE7=Meade Lux Lewis - Tell Your Story No. 2
TTITLE8=Meade Lux Lewis - Variations on a Theme Part One:  19 Ways of Playing a
TTITLE8=Chorus
TTITLE9=Meade Lux Lewis - Variations on a Theme Part Two:  School of Rhythm
TTITLE10=Meade Lux Lewis - Variations on a Theme Part Three:  Self Portrait
TTITLE11=Meade Lux Lewis - Variations on a Theme Part Four:  Feeling Tomorrow L
TTITLE11=ike I Feel Today
TTITLE12=Meade Lux Lewis - Rising Tide Blues
TTITLE13=Meade Lux Lewis - Yancey Special
TTITLE14=Meade Lux Lewis - Chicago Flyer
TTITLE15=Meade Lux Lewis - Blues Whistle
TTITLE16=Meade Lux Lewis - Meade's Blues
EXTD=Boogie woogie pianists (but see "Variations on a Theme").\n\nAlthough the 
EXTD=tunes on this disc are all by Meade Lux Lewis, the collection as a whole i
EXTD=s spread between the two artists, hence the "Various" designation.
EXTT0=
EXTT1=
EXTT2=
EXTT3=
EXTT4=
EXTT5=
EXTT6=
EXTT7=
EXTT8=The "Variations on a Theme" tracks are all played on harpsichord, if you 
EXTT8=can believe it, and magnificently, too.
EXTT9=The "Variations on a Theme" tracks are all played on harpsichord, if you 
EXTT9=can believe it, and magnificently, too.
EXTT10=The "Variations on a Theme" tracks are all played on harpsichord, if you
EXTT10=can believe it, and magnificently, too.
EXTT11=The "Variations on a Theme" tracks are all played on harpsichord, if you
EXTT11=can believe it, and magnificently, too.
EXTT12=
EXTT13=
EXTT14=
EXTT15=
EXTT16=
PLAYORDER=
